HIERARCHY
ROOT Hips
{
	OFFSET	0.00	0.00	0.00
	CHANNELS 6 Xposition Yposition Zposition Zrotation Xrotation Yrotation
	JOINT LeftUpLeg
	{
		OFFSET	 0.126116	-0.014019	-0.065224
		CHANNELS 3 Zrotation Xrotation Yrotation
		JOINT LeftLeg
		{
			OFFSET	 0.000000	 0.000000	 0.569914
			CHANNELS 3 Zrotation Xrotation Yrotation
			JOINT LeftFoot
			{
				OFFSET	 0.000000	 0.000000	 0.544423
				CHANNELS 3 Zrotation Xrotation Yrotation
				JOINT LeftToeBase
				{
					OFFSET	 0.000000	 0.000000	 0.207117
					CHANNELS 3 Zrotation Xrotation Yrotation
					End Site
					{
						OFFSET	 0.000000	 0.000000	 0.207117
					}
				}
			}
		}
	}
	JOINT RightUpLeg
	{
		OFFSET	-0.124023	-0.008373	-0.065224
		CHANNELS 3 Zrotation Xrotation Yrotation
		JOINT RightLeg
		{
			OFFSET	 0.000000	 0.000000	 0.570047
			CHANNELS 3 Zrotation Xrotation Yrotation
			JOINT RightFoot
			{
				OFFSET	 0.000000	 0.000000	 0.544354
				CHANNELS 3 Zrotation Xrotation Yrotation
				JOINT RightToeBase
				{
					OFFSET	 0.000000	 0.000000	 0.207540
					CHANNELS 3 Zrotation Xrotation Yrotation
					End Site
					{
						OFFSET	 0.000000	 0.000000	 0.207540
					}
				}
			}
		}
	}
	JOINT Spine
	{
		OFFSET	 0.000184	-0.007763	 0.117403
		CHANNELS 3 Zrotation Xrotation Yrotation
		JOINT Spine1
		{
			OFFSET	 0.000000	 0.000000	 0.137269
			CHANNELS 3 Zrotation Xrotation Yrotation
			JOINT Spine2
			{
				OFFSET	 0.000000	 0.000000	 0.156879
				CHANNELS 3 Zrotation Xrotation Yrotation
				JOINT LeftShoulder
				{
					OFFSET	 0.080501	-0.002496	 0.160144
					CHANNELS 3 Zrotation Xrotation Yrotation
					JOINT LeftArm
					{
						OFFSET	 0.000000	 0.000000	 0.164363
						CHANNELS 3 Zrotation Xrotation Yrotation
						JOINT LeftForeArm
						{
							OFFSET	 0.000000	 0.000000	 0.364576
							CHANNELS 3 Zrotation Xrotation Yrotation
							JOINT LeftHand
							{
								OFFSET	 0.000000	 0.000000	 0.360812
								CHANNELS 3 Zrotation Xrotation Yrotation
								JOINT LeftHandIndex1
								{
									OFFSET	 0.000000	 0.000000	 0.086006
									CHANNELS 3 Zrotation Xrotation Yrotation
									JOINT LeftHandIndex2
									{
										OFFSET	 0.000000	 0.000000	 0.047237
										CHANNELS 3 Zrotation Xrotation Yrotation
										JOINT LeftHandIndex3
										{
											OFFSET	-0.004284	-0.000551	 0.038165
											CHANNELS 3 Zrotation Xrotation Yrotation
											End Site
											{
												OFFSET	-0.004284	-0.000551	 0.038165
											}
										}
									}
								}
							}
						}
					}
				}
				JOINT Neck
				{
					OFFSET	 0.000000	 0.000000	 0.176489
					CHANNELS 3 Zrotation Xrotation Yrotation
					JOINT Head
					{
						OFFSET	 0.000000	-0.001747	 0.077940
						CHANNELS 3 Zrotation Xrotation Yrotation
						End Site
						{
							OFFSET	 0.000000	-0.001747	 0.077940
						}
					}
				}
				JOINT RightShoulder
				{
					OFFSET	-0.080363	 0.000306	 0.159706
					CHANNELS 3 Zrotation Xrotation Yrotation
					JOINT RightArm
					{
						OFFSET	 0.000000	 0.000000	 0.164196
						CHANNELS 3 Zrotation Xrotation Yrotation
						JOINT RightForeArm
						{
							OFFSET	 0.000000	 0.000000	 0.365611
							CHANNELS 3 Zrotation Xrotation Yrotation
							JOINT RightHand
							{
								OFFSET	 0.000000	 0.000000	 0.360648
								CHANNELS 3 Zrotation Xrotation Yrotation
								JOINT RightHandIndex1
								{
									OFFSET	 0.000000	 0.000000	 0.069977
									CHANNELS 3 Zrotation Xrotation Yrotation
									JOINT RightHandIndex2
									{
										OFFSET	 0.000000	 0.000000	 0.052305
										CHANNELS 3 Zrotation Xrotation Yrotation
										JOINT RightHandIndex3
										{
											OFFSET	 0.009002	-0.000782	 0.042196
											CHANNELS 3 Zrotation Xrotation Yrotation
											End Site
											{
												OFFSET	 0.009002	-0.000782	 0.042196
											}
										}
									}
								}
							}
						}
					}
				}
			}
		}
	}
}
MOTION
Frames:    11
Frame Time: 0.03333334
-0.412325	 0.195588	 1.220441	-175.956700	 6.484149	 14.067530	 40.126550	-10.651720	 168.601900	-8.641552	-43.043820	-6.310502	 151.999300	 76.220450	-164.515900	-2.385833	 28.452760	 0.000004	-30.725630	-34.067320	 154.498700	 5.914168	-52.379140	 3.480916	-14.611690	 77.982590	 33.168910	 2.384659	 28.388700	-0.000001	 79.124770	-16.558650	-0.150464	 44.539470	 18.458970	 20.082370	-6.040238	-0.653761	-16.551340	-91.776160	 78.527400	 180.000000	-10.396240	 16.151310	-51.915770	-5.321853	 0.978042	-15.241900	 4.350619	-26.773620	-0.719356	-4.130319	 21.525730	 0.991547	-5.167930	 0.731704	 3.519349	-1.378229	 35.397820	-2.634230	-18.136200	 7.388137	 7.620234	-23.006850	-22.052820	-15.472570	 89.782070	 78.294650	 179.994000	 54.633580	-0.567495	-15.427280	-10.418090	-4.484017	 48.158090	-28.235560	-3.595880	-81.971310	 5.716227	 19.173190	-3.685159	 5.027444	 0.246877	-9.377972	-2.350882	 35.473990	 5.254307
-0.414873	 0.200388	 1.221510	-175.556000	 6.417850	 13.701360	 40.549630	-9.682759	 168.646500	-8.544706	-42.070440	-6.129905	 151.828100	 76.575360	-164.290300	-2.385833	 28.452760	 0.000004	-30.412250	-33.779850	 155.339600	 6.164260	-52.313790	 3.676235	-14.371870	 78.363480	 32.424790	 2.384659	 28.388700	-0.000001	 77.919730	-15.812800	-0.123986	 43.612610	 17.551400	 20.717690	-5.710521	-0.331200	-16.321890	-91.776200	 78.527360	-180.000000	-10.816020	 15.552630	-49.196780	-4.529245	 0.869746	-17.607870	 4.614960	-27.079400	-0.629659	-4.130319	 21.525730	 0.991547	-5.167930	 0.731704	 3.519349	-1.378229	 35.397820	-2.634230	-17.801310	 7.746030	 7.570067	-22.918940	-22.553300	-15.536770	 89.782150	 78.291690	 179.994200	 55.629970	-3.491014	-13.590390	-10.683390	-4.169371	 43.987340	-31.733200	-2.824133	-77.509690	 5.716227	 19.173190	-3.685159	 5.027444	 0.246877	-9.377972	-2.350882	 35.473990	 5.254307
-0.417289	 0.204876	 1.222587	-175.238300	 6.316636	 12.998560	 40.888710	-8.343190	 168.978000	-8.585230	-40.932820	-6.021820	 151.737600	 76.606260	-164.031100	-2.385833	 28.452760	 0.000004	-29.644630	-33.816540	 156.560900	 6.189482	-52.411010	 3.701070	-12.764470	 78.641160	 30.461820	 2.384659	 28.388700	-0.000001	 76.931210	-14.890790	 0.197604	 42.744510	 16.796600	 21.267160	-5.440835	-0.072031	-16.077840	-91.776190	 78.527380	 180.000000	-11.329600	 15.025990	-46.644080	-3.797356	 0.714518	-19.977840	 4.820302	-27.501320	-0.540598	-4.130319	 21.525730	 0.991547	-5.167930	 0.731704	 3.519349	-1.378229	 35.397820	-2.634230	-17.621810	 7.769165	 7.920516	-22.771660	-22.447870	-16.122310	 89.782130	 78.289500	 179.994500	 55.372210	-5.652879	-10.594070	-11.227470	-3.636682	 36.713220	-33.802230	-4.434645	-72.807320	 5.716227	 19.173190	-3.685159	 5.027444	 0.246877	-9.377972	-2.350882	 35.473990	 5.254307
-0.419482	 0.208934	 1.223617	-174.935300	 6.178797	 12.189090	 41.187460	-6.895299	 169.390600	-8.664782	-39.713480	-5.925361	 151.472700	 76.581210	-163.564700	-2.385833	 28.452760	 0.000004	-28.737860	-33.970310	 157.892700	 6.147596	-52.554080	 3.674819	-10.632540	 78.812570	 28.036480	 2.384659	 28.388700	-0.000001	 76.003620	-13.926630	 0.641102	 41.929890	 16.054830	 21.787590	-5.184040	 0.176955	-15.836530	-91.776190	 78.527380	 180.000000	-11.879320	 14.610990	-44.362540	-3.112395	 0.507395	-22.121030	 5.011540	-27.964390	-0.448540	-4.130319	 21.525730	 0.991547	-5.167930	 0.731704	 3.519349	-1.378229	 35.397820	-2.634230	-17.485490	 7.695286	 8.396672	-22.603450	-22.167770	-16.874590	 89.782190	 78.287800	 179.994300	 54.259610	-7.157886	-7.021965	-11.794650	-2.893013	 28.035310	-35.222010	-7.381204	-68.347450	 5.716227	 19.173190	-3.685159	 5.027444	 0.246877	-9.377972	-2.350882	 35.473990	 5.254307
-0.421232	 0.212552	 1.224565	-174.506200	 5.957119	 11.710160	 41.471650	-5.769839	 169.430400	-8.741031	-38.622050	-5.837688	 151.494900	 76.581320	-163.406000	-2.385833	 28.452760	 0.000004	-28.035380	-33.877380	 158.875900	 6.139813	-52.571880	 3.669494	-8.915163	 79.142430	 25.938900	 2.384659	 28.388700	-0.000001	 74.871090	-13.145570	 0.774857	 41.209780	 15.211160	 22.347350	-4.883642	 0.505669	-15.675070	-91.776180	 78.527350	 180.000000	-12.487240	 14.538920	-42.239650	-2.563464	 0.301105	-24.160930	 5.175059	-28.574150	-0.388284	-4.130319	 21.525730	 0.991547	-5.167930	 0.731704	 3.519349	-1.378229	 35.397820	-2.634230	-17.251450	 7.675062	 8.425288	-22.365120	-22.254820	-16.656610	 89.782060	 78.284210	 179.994800	 53.256760	-8.211255	-3.363164	-12.531420	-2.175384	 19.568610	-36.358180	-10.688430	-64.306250	 5.716227	 19.173190	-3.685159	 5.027444	 0.246877	-9.377972	-2.350882	 35.473990	 5.254307
-0.423055	 0.216535	 1.225655	-173.897000	 5.574994	 11.335840	 41.817850	-4.534180	 169.214200	-8.822725	-37.297310	-5.718669	 151.515600	 76.633620	-163.207600	-2.385833	 28.452760	 0.000004	-27.298790	-33.635520	 159.870800	 6.156629	-52.592860	 3.683908	-6.803249	 79.621380	 23.350260	 2.384659	 28.388700	-0.000001	 73.373900	-12.272370	 0.721233	 40.410910	 14.091290	 23.071250	-4.488744	 0.976396	-15.527900	-91.776100	 78.527380	 179.999900	-13.265370	 14.680020	-39.694780	-2.010477	 0.045454	-26.765810	 5.362296	-29.393510	-0.334984	-4.130319	 21.525730	 0.991547	-5.167930	 0.731704	 3.519349	-1.378229	 35.397820	-2.634230	-16.913450	 7.677695	 8.211578	-22.032260	-22.553410	-15.848940	 89.782170	 78.282000	 179.994800	 51.830140	-8.967145	 1.574031	-13.448330	-0.985024	 8.337778	-37.144390	-15.647860	-59.468440	 5.716227	 19.173190	-3.685159	 5.027444	 0.246877	-9.377972	-2.350882	 35.473990	 5.254307
-0.424296	 0.219531	 1.226550	-173.381300	 5.293509	 11.151060	 42.170910	-3.710786	 168.941100	-8.911652	-36.243330	-5.634006	 150.341300	 76.787620	-161.902000	-2.385833	 28.452760	 0.000004	-26.629840	-33.486160	 160.524500	 6.044958	-52.582140	 3.594486	-4.138399	 79.986020	 20.291400	 2.384659	 28.388700	-0.000001	 72.078130	-11.718820	 0.618427	 39.833850	 13.111760	 23.663010	-4.126969	 1.498772	-15.463780	-91.776190	 78.527360	-180.000000	-13.999450	 14.941960	-37.722160	-1.633851	-0.168226	-28.813670	 5.520261	-30.177970	-0.315447	-4.130319	 21.525730	 0.991547	-5.167930	 0.731704	 3.519349	-1.378229	 35.397820	-2.634230	-16.630910	 7.675978	 8.211956	-21.806690	-22.640890	-15.646790	 89.782060	 78.203850	-179.999900	 50.784880	-9.416368	 4.810724	-14.136800	-0.052498	 0.958213	-37.588390	-19.149800	-56.425930	 5.716227	 19.173190	-3.685159	 5.027444	 0.246877	-9.377972	-2.350882	 35.473990	 5.254307
-0.425012	 0.221443	 1.227165	-172.990000	 5.095676	 11.046260	 42.425690	-3.205895	 168.716600	-8.993405	-35.550830	-5.589713	 149.324200	 76.892860	-160.798500	-2.385833	 28.452760	 0.000004	-26.137040	-33.374780	 160.946700	 5.939183	-52.540810	 3.508357	-1.956354	 80.216990	 17.827970	 2.384659	 28.388700	-0.000001	 71.123760	-11.337880	 0.514230	 39.457320	 12.412650	 24.072060	-3.857703	 1.885410	-15.407040	-91.776190	 78.527420	-180.000000	-14.556720	 15.179920	-36.505280	-1.387005	-0.326120	-30.031010	 5.643939	-30.782990	-0.306374	-4.130319	 21.525730	 0.991547	-5.167930	 0.731704	 3.519349	-1.378229	 35.397820	-2.634230	-16.417660	 7.674593	 8.238729	-21.644570	-22.683490	-15.564060	 89.782060	 78.203870	-180.000000	 49.944350	-9.820426	 4.504294	-14.599360	-0.062597	 0.876590	-38.475740	-19.845800	-56.352860	 5.716227	 19.173190	-3.685159	 5.027444	 0.246877	-9.377972	-2.350882	 35.473990	 5.254307
-0.425741	 0.223720	 1.228009	-172.485100	 4.855977	 10.901400	 42.711800	-2.615722	 168.459900	-9.180855	-34.708930	-5.583675	 147.281400	 77.117360	-158.620100	-2.385833	 28.452760	 0.000004	-25.374290	-33.246380	 161.488500	 5.697183	-52.410270	 3.310074	 1.598511	 80.422360	 13.918730	 2.384659	 28.388700	-0.000001	 69.834720	-10.824240	 0.381706	 38.988910	 11.443240	 24.611870	-3.465874	 2.487111	-15.322130	-91.776180	 78.527400	 180.000000	-15.321350	 15.472760	-35.213760	-1.079967	-0.536312	-31.216950	 5.788732	-31.632550	-0.334046	-4.130319	 21.525730	 0.991547	-5.167930	 0.731704	 3.519349	-1.378229	 35.397820	-2.634230	-16.160070	 7.781618	 8.496782	-21.456220	-22.624400	-16.016530	 89.782070	 78.203870	-180.000000	 48.540550	-10.207920	 4.107447	-15.210930	-0.074483	 0.759565	-39.554820	-20.553600	-56.638160	 5.716227	 19.173190	-3.685159	 5.027444	 0.246877	-9.377972	-2.350882	 35.473990	 5.254307
-0.426067	 0.225058	 1.228545	-172.121500	 4.697745	 10.808610	 42.875940	-2.302961	 168.280900	-9.356881	-34.245780	-5.619778	 145.683400	 77.264020	-156.920700	-2.385833	 28.452760	 0.000004	-24.800270	-33.142690	 161.836200	 5.485233	-52.261380	 3.135520	 4.352811	 80.511440	 10.927300	 2.384659	 28.388700	-0.000001	 68.914880	-10.440150	 0.250046	 38.688820	 10.780210	 24.985590	-3.180185	 2.921881	-15.242440	-91.776240	 78.527380	-179.999900	-15.864810	 15.670030	-34.566290	-0.886066	-0.671334	-31.699050	 5.890511	-32.261610	-0.370820	-4.130319	 21.525730	 0.991547	-5.167930	 0.731704	 3.519349	-1.378229	 35.397820	-2.634230	-15.982780	 7.898323	 8.759715	-21.329050	-22.546900	-16.539580	 89.782080	 78.203900	-180.000000	 47.397150	-10.391220	 3.855138	-15.625620	-0.081335	 0.677147	-40.328140	-21.016670	-57.092560	 5.716227	 19.173190	-3.685159	 5.027444	 0.246877	-9.377972	-2.350882	 35.473990	 5.254307
-0.426201	 0.226029	 1.228896	-171.792100	 4.454576	 10.714330	 42.901750	-1.975733	 168.097000	-9.566773	-33.898470	-5.689544	 144.832700	 77.294940	-155.930300	-2.385833	 28.452760	 0.000004	-24.525470	-32.868540	 162.148300	 5.492876	-52.080900	 3.133916	 5.264699	 80.574100	 9.832473	 2.384659	 28.388700	-0.000001	 68.062510	-9.805893	 0.116944	 38.396710	 9.970170	 25.366020	-2.893179	 3.250117	-15.080840	-91.776180	 78.527400	 180.000000	-16.246350	 15.791430	-34.111580	-0.759532	-0.761919	-31.984360	 5.887233	-32.768150	-0.468990	-4.130319	 21.525730	 0.991547	-5.167930	 0.731704	 3.519349	-1.378229	 35.397820	-2.634230	-15.677630	 8.345361	 8.522292	-21.185150	-23.103840	-16.188140	 89.782110	 78.203830	 180.000000	 46.138950	-10.453540	 3.611272	-15.925250	-0.085687	 0.601790	-40.710070	-21.655850	-57.273690	 5.716227	 19.173190	-3.685159	 5.027444	 0.246877	-9.377972	-2.350882	 35.473990	 5.254307
